<?xml version="1.0" encoding="utf-8"?>
<!-- Generator: Adobe Illustrator 23.0.6, SVG Export Plug-In . SVG Version: 6.00 Build 0)  -->
<svg version="1.1" xmlns="http://www.w3.org/2000/svg" xmlns:xlink="http://www.w3.org/1999/xlink" x="0px" y="0px"
	 viewBox="0 0 2314 1791.18" style="enable-background:new 0 0 2314 1791.18;" xml:space="preserve">
<style type="text/css">
	.st0{fill:#1F1F1F;}
	.st1{clip-path:url(#Eclipse_1_);}
	.st2{fill:none;stroke:#B3A391;stroke-width:15;stroke-miterlimit:10;}
	.st3{fill:none;stroke:#A17A6F;stroke-width:15;stroke-miterlimit:10;}
	.st4{fill:none;stroke:#83A7B3;stroke-width:15;stroke-miterlimit:10;}
	.st5{fill:none;stroke:#3D7194;stroke-width:15;stroke-miterlimit:10;}
	.st6{fill:none;stroke:#4FA159;stroke-width:15;stroke-miterlimit:10;}
	.st7{fill:none;stroke:#3D3D3D;stroke-width:15;stroke-miterlimit:10;}
	.st8{fill:none;stroke:#666666;stroke-width:15;stroke-miterlimit:10;}
	.st9{fill:none;stroke:#9C5D36;stroke-width:15;stroke-miterlimit:10;}
	.st10{fill:none;stroke:#774C80;stroke-width:15;stroke-miterlimit:10;}
	.st11{fill:none;stroke:#57412B;stroke-width:15;stroke-miterlimit:10;}
	.st12{fill:url(#Fader_1_);}
	.st13{fill:#57412B;}
	.st14{fill:#774C80;}
	.st15{fill:#9C5D36;}
	.st16{fill:#666666;}
	.st17{fill:#3D3D3D;}
	.st18{fill:#4FA159;}
	.st19{fill:#3D7194;}
	.st20{fill:#83A7B3;}
	.st21{fill:#A17A6F;}
	.st22{fill:#B3A391;}
	.st23{fill:none;stroke:#9C5D36;stroke-width:10;stroke-miterlimit:10;}
	.st24{fill:none;stroke:#774C80;stroke-width:10;stroke-miterlimit:10;}
	.st25{fill:none;stroke:#57412B;stroke-width:10;stroke-miterlimit:10;}
	.st26{fill:none;stroke:#666666;stroke-width:10;stroke-miterlimit:10;}
	.st27{fill:none;stroke:#3D3D3D;stroke-width:10;stroke-miterlimit:10;}
	.st28{fill:none;stroke:#4FA159;stroke-width:10;stroke-miterlimit:10;}
	.st29{fill:none;stroke:#83A7B3;stroke-width:10;stroke-miterlimit:10;}
	.st30{fill:none;stroke:#A17A6F;stroke-width:10;stroke-miterlimit:10;}
	.st31{fill:none;stroke:#B3A391;stroke-width:10;stroke-miterlimit:10;}
	.st32{fill:#333333;}
	.st33{clip-path:url(#SVGID_2_);}
	.st34{clip-path:url(#SVGID_4_);}
	.st35{clip-path:url(#SVGID_6_);}
	.st36{clip-path:url(#SVGID_8_);}
	.st37{clip-path:url(#SVGID_10_);}
	.st38{clip-path:url(#SVGID_12_);}
	.st39{clip-path:url(#SVGID_14_);}
	.st40{clip-path:url(#SVGID_16_);}
	.st41{clip-path:url(#SVGID_18_);}
	.st42{clip-path:url(#SVGID_20_);}
	.st43{fill:#FBB03B;}
	.st44{clip-path:url(#SVGID_22_);}
	.st45{clip-path:url(#SVGID_24_);}
	.st46{fill:#1F1F1F;stroke:#FFFFFF;stroke-width:2;stroke-miterlimit:10;}
	.st47{fill:#774C80;stroke:#1F1F1F;stroke-width:6;stroke-miterlimit:10;}
	.st48{fill:#666666;stroke:#1F1F1F;stroke-width:6;stroke-miterlimit:10;}
	.st49{fill:#83A7B3;stroke:#1F1F1F;stroke-width:6;stroke-miterlimit:10;}
	.st50{fill:#1F1F1F;stroke:#666666;stroke-width:4;stroke-miterlimit:10;}
	.st51{fill:#C21F1D;}
	.st52{font-family:'MyriadPro-Bold';}
	.st53{font-size:22px;}
	.st54{fill:#FFFFFF;}
	.st55{font-family:'MyriadPro-Regular';}
	.st56{letter-spacing:-4;}
	.st57{letter-spacing:31;}
	.st58{font-family:'Ebrima';}
	.st59{font-size:96px;}
	.st60{fill:none;}
	.st61{font-size:26px;}
	.st62{clip-path:url(#SVGID_26_);}
	.st63{fill:none;stroke:#FFFFFF;stroke-width:2;stroke-miterlimit:10;}
	.st64{clip-path:url(#SVGID_28_);}
	.st65{clip-path:url(#SVGID_30_);}
	.st66{font-family:'MyriadPro-Semibold';}
	.st67{font-size:32px;}
</style>
<g id="Matte">
	<rect x="-6.5" y="-5.91" class="st0" width="2327" height="1803"/>
</g>
<g id="Paths">
	<g>
		<defs>
			<rect id="Eclipse" x="1030" y="48.25" width="820" height="1654"/>
		</defs>
		<clipPath id="Eclipse_1_">
			<use xlink:href="#Eclipse"  style="overflow:visible;"/>
		</clipPath>
		<g id="Arcs" class="st1">
			<ellipse class="st2" cx="1042.16" cy="855.11" rx="756.84" ry="739.5"/>
			<ellipse class="st3" cx="1042.16" cy="917.2" rx="682.84" ry="678.41"/>
			<ellipse class="st4" cx="1042.16" cy="961.12" rx="625.52" ry="634.49"/>
			<ellipse class="st5" cx="1042.16" cy="1049.61" rx="558.91" ry="546"/>
			<ellipse class="st6" cx="1042.16" cy="1158.61" rx="486.84" ry="437"/>
			<ellipse class="st7" cx="1039.16" cy="1230.48" rx="406.84" ry="365.13"/>
			<ellipse class="st8" cx="1042.16" cy="1254.39" rx="373.12" ry="341.22"/>
			<ellipse class="st9" cx="1042.16" cy="1297.8" rx="321.34" ry="297.81"/>
			<ellipse class="st10" cx="1042.16" cy="1340.99" rx="278.48" ry="254.62"/>
			<ellipse class="st11" cx="1042.16" cy="1377.9" rx="216.84" ry="217.71"/>
		</g>
	</g>
	<linearGradient id="Fader_1_" gradientUnits="userSpaceOnUse" x1="1504" y1="829.7544" x2="1820" y2="829.7544">
		<stop  offset="0" style="stop-color:#1F1F1F;stop-opacity:0"/>
		<stop  offset="1" style="stop-color:#1F1F1F"/>
	</linearGradient>
	<rect id="Fader" x="1504" y="176.25" class="st12" width="316" height="1307"/>
	<g id="Tabs">
		<rect x="1989" y="1357.25" class="st13" width="273" height="33"/>
		<rect x="1989" y="1226.25" class="st14" width="273" height="33"/>
		<rect x="1989" y="1095.25" class="st15" width="273" height="33"/>
		<rect x="1989" y="966.25" class="st16" width="273" height="31"/>
		<rect x="1989" y="835.25" class="st17" width="273" height="31"/>
		<rect x="1990" y="704.25" class="st18" width="272" height="32"/>
		<rect x="1990" y="571.25" class="st19" width="272" height="35"/>
		<rect x="1990" y="441.25" class="st20" width="272" height="34"/>
		<rect x="1989.5" y="310.75" class="st21" width="272" height="34"/>
		<rect x="1990" y="180.25" class="st22" width="272" height="33"/>
	</g>
	<g id="Tab_links">
		<line class="st23" x1="1302.99" y1="1123.49" x2="1991" y2="1123.25"/>
		<line class="st24" x1="1300" y1="1254.38" x2="1991" y2="1254.25"/>
		<line class="st25" x1="1259" y1="1385.38" x2="1991" y2="1385.25"/>
		<line class="st26" x1="1281" y1="992.38" x2="1991" y2="992.25"/>
		<line class="st27" x1="1058" y1="861.38" x2="1991" y2="861.25"/>
		<polyline class="st28" points="1158,733.25 1442.99,731.49 1492.99,731.38 1991,731.25 		"/>
		<line class="st5" x1="1361" y1="599.38" x2="1991" y2="599.25"/>
		<line class="st29" x1="1434" y1="470.38" x2="1991" y2="470.25"/>
		<line class="st30" x1="1404" y1="340.38" x2="1991" y2="340.25"/>
		<line class="st31" x1="1404" y1="208.38" x2="1991" y2="208.25"/>
	</g>
	<g id="Moon_links">
		<line class="st10" x1="1039" y1="1085.75" x2="849" y2="1085.75"/>
		<line class="st9" x1="1039" y1="999.75" x2="670" y2="999.75"/>
		<line class="st8" x1="1039" y1="912.75" x2="489" y2="912.75"/>
		<line class="st6" x1="1039" y1="721.75" x2="140" y2="721.75"/>
		<line class="st5" x1="1039" y1="503.75" x2="140.5" y2="503.75"/>
		<line class="st4" x1="1039" y1="326.75" x2="670" y2="326.75"/>
		<line class="st2" x1="1039" y1="115.75" x2="489" y2="115.75"/>
		<line class="st5" x1="1039" y1="1594.75" x2="670" y2="1594.75"/>
	</g>
	<g id="Legend_panel">
		<rect y="1058.25" class="st20" width="490" height="61"/>
		<rect y="1080.25" class="st32" width="490" height="711"/>
	</g>
	<rect x="1464" y="0.25" class="st32" width="850" height="164"/>
</g>
<g id="Sub_x5F_Circles">
	<g>
		<defs>
			<rect id="SVGID_1_" x="1041" y="1596.25" width="74" height="74"/>
		</defs>
		<clipPath id="SVGID_2_">
			<use xlink:href="#SVGID_1_"  style="overflow:visible;"/>
		</clipPath>
		<g class="st33">
			
				<ellipse transform="matrix(0.1602 -0.9871 0.9871 0.1602 -700.0615 2368.3984)" class="st0" cx="1041.83" cy="1595.61" rx="45.22" ry="45.22"/>
			<g>
				<path class="st19" d="M1041.83,1557.39c21.11,0,38.22,17.11,38.22,38.22s-17.11,38.22-38.22,38.22
					c-21.11,0-38.22-17.11-38.22-38.22S1020.72,1557.39,1041.83,1557.39 M1041.83,1543.39c-28.79,0-52.22,23.42-52.22,52.22
					s23.43,52.22,52.22,52.22c28.79,0,52.22-23.42,52.22-52.22S1070.62,1543.39,1041.83,1543.39L1041.83,1543.39z"/>
			</g>
		</g>
	</g>
	<g>
		<defs>
			<rect id="SVGID_3_" x="1041" y="1087.25" width="74" height="74"/>
		</defs>
		<clipPath id="SVGID_4_">
			<use xlink:href="#SVGID_3_"  style="overflow:visible;"/>
		</clipPath>
		<g class="st34">
			
				<ellipse transform="matrix(0.1602 -0.9871 0.9871 0.1602 -197.3997 1940.7317)" class="st0" cx="1041.83" cy="1086.37" rx="40.95" ry="40.95"/>
			<g>
				<path class="st16" d="M1041.83,1052.42c18.75,0,33.95,15.2,33.95,33.95c0,18.75-15.2,33.95-33.95,33.95
					c-18.75,0-33.95-15.2-33.95-33.95C1007.88,1067.62,1023.08,1052.42,1041.83,1052.42 M1041.83,1038.42
					c-26.44,0-47.95,21.51-47.95,47.95c0,26.44,21.51,47.95,47.95,47.95c26.44,0,47.95-21.51,47.95-47.95
					C1089.78,1059.93,1068.27,1038.42,1041.83,1038.42L1041.83,1038.42z"/>
			</g>
		</g>
	</g>
	<g>
		<defs>
			<rect id="SVGID_5_" x="1041" y="1000.25" width="49" height="50"/>
		</defs>
		<clipPath id="SVGID_6_">
			<use xlink:href="#SVGID_5_"  style="overflow:visible;"/>
		</clipPath>
		<g class="st35">
			<circle class="st0" cx="1041.83" cy="999.99" r="33.97"/>
			<g>
				<path class="st16" d="M1041.83,973.02c14.9,0,26.97,12.08,26.97,26.97c0,14.9-12.08,26.97-26.97,26.97
					c-14.9,0-26.97-12.08-26.97-26.97C1014.85,985.09,1026.93,973.02,1041.83,973.02 M1041.83,959.02
					c-22.59,0-40.97,18.38-40.97,40.97c0,22.59,18.38,40.97,40.97,40.97s40.97-18.38,40.97-40.97
					C1082.8,977.4,1064.42,959.02,1041.83,959.02L1041.83,959.02z"/>
			</g>
		</g>
	</g>
	<g>
		<defs>
			<rect id="SVGID_7_" x="849" y="722.25" width="49" height="50"/>
		</defs>
		<clipPath id="SVGID_8_">
			<use xlink:href="#SVGID_7_"  style="overflow:visible;"/>
		</clipPath>
		<g class="st36">
			<circle class="st0" cx="849.83" cy="721.99" r="33.97"/>
			<g>
				<path class="st19" d="M849.83,695.02c14.9,0,26.97,12.08,26.97,26.97c0,14.9-12.08,26.97-26.97,26.97
					c-14.9,0-26.97-12.08-26.97-26.97C822.85,707.09,834.93,695.02,849.83,695.02 M849.83,681.02c-22.59,0-40.97,18.38-40.97,40.97
					c0,22.59,18.38,40.97,40.97,40.97c22.59,0,40.97-18.38,40.97-40.97C890.8,699.4,872.42,681.02,849.83,681.02L849.83,681.02z"/>
			</g>
		</g>
	</g>
	<g>
		<defs>
			<rect id="SVGID_9_" x="1041" y="327.25" width="49" height="50"/>
		</defs>
		<clipPath id="SVGID_10_">
			<use xlink:href="#SVGID_9_"  style="overflow:visible;"/>
		</clipPath>
		<g class="st37">
			<path class="st0" d="M1041.4,350.17c-12.98,0-23.54-10.56-23.54-23.54s10.56-23.54,23.54-23.54c12.98,0,23.54,10.56,23.54,23.54
				S1054.38,350.17,1041.4,350.17z"/>
			<g>
				<path class="st16" d="M1041.4,310.08c9.14,0,16.54,7.41,16.54,16.54c0,9.14-7.41,16.54-16.54,16.54
					c-9.14,0-16.54-7.41-16.54-16.54C1024.85,317.49,1032.26,310.08,1041.4,310.08 M1041.4,296.08c-16.84,0-30.54,13.7-30.54,30.54
					c0,16.84,13.7,30.54,30.54,30.54c16.84,0,30.54-13.7,30.54-30.54C1071.94,309.78,1058.24,296.08,1041.4,296.08L1041.4,296.08z"
					/>
			</g>
		</g>
	</g>
	<g>
		<defs>
			<rect id="SVGID_11_" x="1041" y="116.25" width="69" height="70"/>
		</defs>
		<clipPath id="SVGID_12_">
			<use xlink:href="#SVGID_11_"  style="overflow:visible;"/>
		</clipPath>
		<g class="st38">
			<path class="st0" d="M1041.83,171.71c-30.93,0-56.1-25.17-56.1-56.1s25.17-56.1,56.1-56.1c30.93,0,56.1,25.17,56.1,56.1
				S1072.76,171.71,1041.83,171.71z"/>
			<g>
				<path class="st16" d="M1041.83,66.51c27.12,0,49.1,21.98,49.1,49.1c0,27.11-21.98,49.1-49.1,49.1c-27.12,0-49.1-21.98-49.1-49.1
					C992.73,88.5,1014.71,66.51,1041.83,66.51 M1041.83,52.51c-34.79,0-63.1,28.31-63.1,63.1c0,34.79,28.31,63.1,63.1,63.1
					c34.79,0,63.1-28.31,63.1-63.1C1104.93,80.82,1076.62,52.51,1041.83,52.51L1041.83,52.51z"/>
			</g>
		</g>
	</g>
	<g>
		<defs>
			<rect id="SVGID_13_" x="489" y="722.25" width="49" height="50"/>
		</defs>
		<clipPath id="SVGID_14_">
			<use xlink:href="#SVGID_13_"  style="overflow:visible;"/>
		</clipPath>
		<g class="st39">
			<circle class="st0" cx="489.83" cy="721.99" r="33.97"/>
			<g>
				<path class="st16" d="M489.83,695.02c14.9,0,26.97,12.08,26.97,26.97c0,14.9-12.08,26.97-26.97,26.97
					c-14.9,0-26.97-12.08-26.97-26.97C462.85,707.09,474.93,695.02,489.83,695.02 M489.83,681.02c-22.59,0-40.97,18.38-40.97,40.97
					c0,22.59,18.38,40.97,40.97,40.97c22.59,0,40.97-18.38,40.97-40.97C530.8,699.4,512.42,681.02,489.83,681.02L489.83,681.02z"/>
			</g>
		</g>
	</g>
	<g>
		<defs>
			<rect id="SVGID_15_" x="1041" y="722.25" width="110" height="112"/>
		</defs>
		<clipPath id="SVGID_16_">
			<use xlink:href="#SVGID_15_"  style="overflow:visible;"/>
		</clipPath>
		<g class="st40">
			<path class="st0" d="M1041.83,817.79c-53.03,0-96.18-43.14-96.18-96.18c0-53.03,43.15-96.18,96.18-96.18
				c53.03,0,96.18,43.14,96.18,96.18C1138.01,774.64,1094.86,817.79,1041.83,817.79z"/>
			<g>
				<path class="st16" d="M1041.83,632.44c49.25,0,89.18,39.93,89.18,89.18c0,49.25-39.92,89.18-89.18,89.18
					c-49.25,0-89.18-39.93-89.18-89.18C952.65,672.36,992.57,632.44,1041.83,632.44 M1041.83,618.44
					c-56.89,0-103.18,46.28-103.18,103.18c0,56.89,46.29,103.18,103.18,103.18c56.89,0,103.18-46.28,103.18-103.18
					C1145.01,664.72,1098.72,618.44,1041.83,618.44L1041.83,618.44z"/>
			</g>
		</g>
	</g>
	<g>
		<defs>
			<rect id="SVGID_17_" x="1041" y="504.25" width="100" height="102"/>
		</defs>
		<clipPath id="SVGID_18_">
			<use xlink:href="#SVGID_17_"  style="overflow:visible;"/>
		</clipPath>
		<g class="st41">
			<path class="st0" d="M1041.83,578.79c-41.45,0-75.18-33.72-75.18-75.18s33.73-75.18,75.18-75.18c41.45,0,75.18,33.72,75.18,75.18
				S1083.28,578.79,1041.83,578.79z"/>
			<g>
				<path class="st16" d="M1041.83,435.43c37.66,0,68.18,30.52,68.18,68.18c0,37.65-30.52,68.18-68.18,68.18
					c-37.66,0-68.18-30.52-68.18-68.18C973.65,465.96,1004.17,435.43,1041.83,435.43 M1041.83,421.43
					c-45.31,0-82.18,36.86-82.18,82.18c0,45.31,36.87,82.18,82.18,82.18c45.31,0,82.18-36.86,82.18-82.18
					C1124.01,458.3,1087.14,421.43,1041.83,421.43L1041.83,421.43z"/>
			</g>
		</g>
	</g>
	<g>
		<defs>
			<rect id="SVGID_19_" x="1041" y="1388.25" width="153" height="153"/>
		</defs>
		<clipPath id="SVGID_20_">
			<use xlink:href="#SVGID_19_"  style="overflow:visible;"/>
		</clipPath>
		<g class="st42">
			
				<ellipse transform="matrix(0.1602 -0.9871 0.9871 0.1602 -494.5884 2193.5806)" class="st0" cx="1041.83" cy="1387.45" rx="139.8" ry="139.81"/>
			<g>
				<path class="st43" d="M1041.83,1254.65c73.34,0,132.8,59.46,132.8,132.8s-59.46,132.8-132.8,132.8
					c-73.35,0-132.81-59.46-132.81-132.8S968.48,1254.65,1041.83,1254.65 M1041.83,1240.65c-39.21,0-76.08,15.27-103.81,43
					c-27.73,27.73-43,64.59-43,103.81s15.27,76.08,43,103.81c27.73,27.73,64.59,43,103.81,43c39.21,0,76.08-15.27,103.81-43
					c27.73-27.73,43-64.59,43-103.81s-15.27-76.08-43-103.81C1117.91,1255.92,1081.04,1240.65,1041.83,1240.65L1041.83,1240.65z"/>
			</g>
		</g>
	</g>
	<g>
		<defs>
			<rect id="SVGID_21_" x="489" y="504.25" width="49" height="50"/>
		</defs>
		<clipPath id="SVGID_22_">
			<use xlink:href="#SVGID_21_"  style="overflow:visible;"/>
		</clipPath>
		<g class="st44">
			<circle class="st0" cx="489.83" cy="503.99" r="33.97"/>
			<g>
				<path class="st16" d="M489.83,477.02c14.9,0,26.97,12.08,26.97,26.97c0,14.9-12.08,26.97-26.97,26.97
					c-14.9,0-26.97-12.08-26.97-26.97C462.85,489.09,474.93,477.02,489.83,477.02 M489.83,463.02c-22.59,0-40.97,18.38-40.97,40.97
					c0,22.59,18.38,40.97,40.97,40.97c22.59,0,40.97-18.38,40.97-40.97C530.8,481.4,512.42,463.02,489.83,463.02L489.83,463.02z"/>
			</g>
		</g>
	</g>
	<g>
		<defs>
			<rect id="SVGID_23_" x="320" y="504.25" width="49" height="50"/>
		</defs>
		<clipPath id="SVGID_24_">
			<use xlink:href="#SVGID_23_"  style="overflow:visible;"/>
		</clipPath>
		<g class="st45">
			<circle class="st0" cx="320.83" cy="503.99" r="33.97"/>
			<g>
				<path class="st16" d="M320.83,477.02c14.9,0,26.97,12.08,26.97,26.97c0,14.9-12.08,26.97-26.97,26.97
					c-14.9,0-26.97-12.08-26.97-26.97C293.85,489.09,305.93,477.02,320.83,477.02 M320.83,463.02c-22.59,0-40.97,18.38-40.97,40.97
					c0,22.59,18.38,40.97,40.97,40.97s40.97-18.38,40.97-40.97C361.8,481.4,343.42,463.02,320.83,463.02L320.83,463.02z"/>
			</g>
		</g>
	</g>
</g>
<g id="Circles">
	<circle class="st46" cx="1041.83" cy="1387.45" r="132.8"/>
	
		<ellipse transform="matrix(0.9993 -0.0385 0.0385 0.9993 -60.6442 41.2831)" class="st46" cx="1041.83" cy="1595.61" rx="38.22" ry="38.22"/>
	<path class="st46" d="M1057.94,1160.19c0,9.14-7.41,16.54-16.54,16.54c-9.14,0-16.54-7.41-16.54-16.54s7.41-16.54,16.54-16.54
		C1050.53,1143.65,1057.94,1151.06,1057.94,1160.19z"/>
	<path class="st47" d="M865.94,1086.19c0,9.14-7.41,16.54-16.54,16.54c-9.14,0-16.54-7.41-16.54-16.54s7.41-16.54,16.54-16.54
		C858.53,1069.65,865.94,1077.06,865.94,1086.19z"/>
	<path class="st46" d="M686.94,999.19c0,9.14-7.41,16.54-16.54,16.54c-9.14,0-16.54-7.41-16.54-16.54s7.41-16.54,16.54-16.54
		C679.53,982.65,686.94,990.06,686.94,999.19z"/>
	<path class="st48" d="M505.94,913.19c0,9.14-7.41,16.54-16.54,16.54c-9.14,0-16.54-7.41-16.54-16.54s7.41-16.54,16.54-16.54
		C498.53,896.65,505.94,904.06,505.94,913.19z"/>
	<path class="st46" d="M686.94,721.71c0,9.13-7.41,16.54-16.54,16.54c-9.14,0-16.54-7.41-16.54-16.54c0-9.14,7.41-16.54,16.54-16.54
		C679.53,705.17,686.94,712.58,686.94,721.71z"/>
	<path class="st46" d="M865.94,326.71c0,9.13-7.41,16.54-16.54,16.54c-9.14,0-16.54-7.41-16.54-16.54c0-9.14,7.41-16.54,16.54-16.54
		C858.53,310.17,865.94,317.58,865.94,326.71z"/>
	<path class="st46" d="M505.94,115.71c0,9.13-7.41,16.54-16.54,16.54c-9.14,0-16.54-7.41-16.54-16.54c0-9.14,7.41-16.54,16.54-16.54
		C498.53,99.17,505.94,106.58,505.94,115.71z"/>
	<path class="st46" d="M865.94,115.71c0,9.13-7.41,16.54-16.54,16.54c-9.14,0-16.54-7.41-16.54-16.54c0-9.14,7.41-16.54,16.54-16.54
		C858.53,99.17,865.94,106.58,865.94,115.71z"/>
	<path class="st49" d="M686.94,326.71c0,9.13-7.41,16.54-16.54,16.54c-9.14,0-16.54-7.41-16.54-16.54c0-9.14,7.41-16.54,16.54-16.54
		C679.53,310.17,686.94,317.58,686.94,326.71z"/>
	<path class="st46" d="M865.94,1594.71c0,9.13-7.41,16.54-16.54,16.54c-9.14,0-16.54-7.41-16.54-16.54
		c0-9.14,7.41-16.54,16.54-16.54C858.53,1578.17,865.94,1585.58,865.94,1594.71z"/>
	<path class="st46" d="M686.94,1594.71c0,9.13-7.41,16.54-16.54,16.54c-9.14,0-16.54-7.41-16.54-16.54
		c0-9.14,7.41-16.54,16.54-16.54C679.53,1578.17,686.94,1585.58,686.94,1594.71z"/>
	<path class="st46" d="M336.94,721.71c0,9.13-7.41,16.54-16.54,16.54c-9.14,0-16.54-7.41-16.54-16.54c0-9.14,7.41-16.54,16.54-16.54
		C329.53,705.17,336.94,712.58,336.94,721.71z"/>
	<path class="st46" d="M156.94,721.71c0,9.13-7.41,16.54-16.54,16.54c-9.14,0-16.54-7.41-16.54-16.54c0-9.14,7.41-16.54,16.54-16.54
		C149.53,705.17,156.94,712.58,156.94,721.71z"/>
	<path class="st46" d="M1057.94,913.18c0,9.13-7.41,16.54-16.54,16.54c-9.14,0-16.54-7.41-16.54-16.54
		c0-9.14,7.41-16.54,16.54-16.54C1050.53,896.63,1057.94,904.04,1057.94,913.18z"/>
	<path class="st46" d="M1057.94,865.35c0,9.14-7.41,16.54-16.54,16.54c-9.14,0-16.54-7.41-16.54-16.54
		c0-9.14,7.41-16.54,16.54-16.54C1050.53,848.81,1057.94,856.21,1057.94,865.35z"/>
	<path class="st46" d="M1057.94,326.63c0,9.14-7.41,16.54-16.54,16.54c-9.14,0-16.54-7.41-16.54-16.54
		c0-9.14,7.41-16.54,16.54-16.54C1050.53,310.08,1057.94,317.49,1057.94,326.63z"/>
	<path class="st46" d="M1057.94,238.8c0,9.14-7.41,16.54-16.54,16.54c-9.14,0-16.54-7.41-16.54-16.54c0-9.14,7.41-16.54,16.54-16.54
		C1050.53,222.26,1057.94,229.66,1057.94,238.8z"/>
	<path class="st46" d="M1131.01,721.61c0,49.25-39.92,89.18-89.18,89.18c-49.25,0-89.18-39.93-89.18-89.18
		c0-49.25,39.92-89.18,89.18-89.18C1091.08,632.44,1131.01,672.36,1131.01,721.61z"/>
	<path class="st46" d="M1110.01,503.61c0,37.65-30.52,68.18-68.18,68.18c-37.66,0-68.18-30.52-68.18-68.18
		c0-37.65,30.52-68.18,68.18-68.18C1079.48,435.43,1110.01,465.96,1110.01,503.61z"/>
	<path class="st46" d="M1090.93,115.61c0,27.11-21.98,49.1-49.1,49.1c-27.12,0-49.1-21.98-49.1-49.1c0-27.11,21.98-49.1,49.1-49.1
		C1068.95,66.51,1090.93,88.5,1090.93,115.61z"/>
	
		<ellipse transform="matrix(0.9991 -0.0417 0.0417 0.9991 -44.3723 44.3649)" class="st46" cx="1041.83" cy="1086.37" rx="33.95" ry="33.95"/>
	<circle class="st46" cx="1041.83" cy="999.99" r="26.97"/>
	<circle class="st46" cx="849.83" cy="721.99" r="26.97"/>
	<circle class="st46" cx="489.83" cy="721.99" r="26.97"/>
	<circle class="st46" cx="670.83" cy="115.99" r="26.97"/>
	<g>
		<polygon class="st16" points="1125.34,1310.25 1150.64,1266.44 1175.94,1310.25 		"/>
		<polygon class="st50" points="1128.01,1322.25 1150.64,1283.06 1173.27,1322.25 		"/>
	</g>
	<g>
		<polygon class="st16" points="1084.34,669.25 1109.64,625.44 1134.94,669.25 		"/>
		<polygon class="st50" points="1087.01,681.25 1109.64,642.06 1132.27,681.25 		"/>
	</g>
	<g>
		<polygon class="st16" points="1064.34,451.25 1089.64,407.44 1114.94,451.25 		"/>
		<polygon class="st50" points="1067.01,463.25 1089.64,424.06 1112.27,463.25 		"/>
	</g>
	<g>
		<path class="st51" d="M1042.33,82.81c-0.12,5.42,4.24,5.42,4.24,5.42l3.89-2.94l0.94-4.71c0,0-3.53-2.83-5.18-4
			s-7.3-6.59-7.3-6.59S1042.46,76.69,1042.33,82.81z"/>
		<path class="st0" d="M1100.67,89.73l-6.59,6.95L1071,86.2l-27.9-31.91c0,0,0-8.36,3.41-8.24c1.08,0.04,4.12,1.41,4.12,1.41
			l2.83-2.47c0,0,0.71-5.06,4.71-5.06c4.48,0,19.66,14.34,23.19,19.9c3.3,5.18,24.14,17.31,24.14,17.31L1100.67,89.73z"/>
		<path class="st51" d="M1083.89,89.32c-3.06-0.47-8.24-1.53-11.3-4.47c-3.06-2.94-27.01-29.6-27.9-35.2
			c-0.47-2.94,1.88-3.65,1.88-3.65s-2.35-1.75-6.18,6.65c-3.65,8.01-3.24,12.54-1.47,15.01c1.77,2.47,13.77,10.48,16.95,14.36
			c2.79,3.41,10.89,16.92,19.9,19.78c9.83,3.12,29.25,4.31,32.02,0.71c2.77-3.59,0-8.01-1.59-9.48c-1.28-1.19-7.36-4.53-7.36-4.53
			l-3.18,0.71c0,0-2,4.03-2.71,5.77C1091.6,93.62,1083.89,89.32,1083.89,89.32z"/>
		<polygon class="st51" points="1085.01,88.1 1092.48,92.74 1094.63,88.4 1098.31,87.3 1091.76,82.36 1090.94,85.58 		"/>
		<path class="st51" d="M1091.66,75.78l10.01,6.95l0.82-5.89l1.65-0.35c0,0,4.83,2.15,6,3.41c1.47,1.59,3.24,4.18,2.41,6.77
			c-1.15,3.62-9.36,3.12-9.36,3.12l-3.18-1.41l1.3-0.71l-10.48-7.89l-0.47,2.35c0,0-15.54-10.71-16.66-13.36
			c-3.58-8.49-23.08-21.31-23.08-21.31s3.36-7.12,6.3-7.24c-1,1.24,2.41,7.48,15.19,21.07
			C1086.25,76.34,1091.66,75.78,1091.66,75.78z"/>
		<polygon class="st51" points="1093.4,74.79 1100.44,79.85 1100.95,75.82 1103.95,75.2 1097.02,70.34 1097.33,72.92 		"/>
	</g>
	<path class="st46" d="M865.94,503.71c0,9.13-7.41,16.54-16.54,16.54c-9.14,0-16.54-7.41-16.54-16.54c0-9.14,7.41-16.54,16.54-16.54
		C858.53,487.17,865.94,494.58,865.94,503.71z"/>
	<path class="st46" d="M686.94,503.71c0,9.13-7.41,16.54-16.54,16.54c-9.14,0-16.54-7.41-16.54-16.54c0-9.14,7.41-16.54,16.54-16.54
		C679.53,487.17,686.94,494.58,686.94,503.71z"/>
	<path class="st46" d="M156.94,503.71c0,9.13-7.41,16.54-16.54,16.54c-9.14,0-16.54-7.41-16.54-16.54c0-9.14,7.41-16.54,16.54-16.54
		C149.53,487.17,156.94,494.58,156.94,503.71z"/>
	<circle class="st46" cx="489.83" cy="503.99" r="26.97"/>
	<circle class="st46" cx="320.83" cy="503.99" r="26.97"/>
</g>
<g id="Title">
</g>
<g id="Text">
	<text transform="matrix(1 0 0 1 809.8574 785.8413)"><tspan x="0" y="0" class="st18 st52 st53">Laythe</tspan><tspan x="-85.8" y="26.4" class="st54 st55 st53">Descent : Chutes</tspan><tspan x="-73.28" y="52.8" class="st54 st55 st53">Ascent :     3325</tspan></text>
	<text transform="matrix(1 0 0 1 832.1655 1134.3228)"><tspan x="0" y="0" class="st14 st52 st53">Gilly</tspan><tspan x="-63.69" y="26.4" class="st54 st55 st53">Ascent :   70</tspan></text>
	<text transform="matrix(1 0 0 1 1696.7495 236.2563)"><tspan x="0" y="0" class="st54 st55 st53">4095 ~ 4320 :: Ejection </tspan><tspan x="0" y="26.4" class="st54 st55 st53">       0 ~ 5175 :: Plane change </tspan><tspan x="0" y="52.8" class="st54 st55 st53">2480 ~ 2775 ::  Low Orb Ins</tspan><tspan x="0" y="131.2" class="st54 st55 st53">3855 ~ 3895 :: Ejection </tspan><tspan x="0" y="157.6" class="st54 st55 st53">       0 ~ 1015 :: Plane change </tspan><tspan x="0" y="184" class="st54 st55 st53">1825 ~ 2290 :: Low Orb Ins</tspan><tspan x="0" y="262.4" class="st54 st55 st53">3670 ~ 3905 :: Ejection </tspan><tspan x="0" y="288.8" class="st54 st55 st53">       0 ~ 1570 :: Plane change </tspan><tspan x="0" y="315.2" class="st54 st55 st53">1430 ~ 2690 :: Low Orb Ins</tspan><tspan x="0" y="393.6" class="st54 st55 st53">3585 ~ 3730 :: Ejection </tspan><tspan x="0" y="420" class="st54 st55 st53">       0 ~ 0430 :: Plane change </tspan><tspan x="0" y="446.4" class="st54 st55 st53">3730 ~ 3775 :: Low Orb Ins</tspan><tspan x="0" y="524.8" class="st54 st55 st53">3070 ~ 3195 :: Ejection </tspan><tspan x="0" y="551.2" class="st54 st55 st53">       0 ~ 0320 :: Plane change </tspan><tspan x="0" y="577.6" class="st54 st55 st53">5045 ~ 5095 :: Low Orb Ins</tspan><tspan x="0" y="656" class="st54 st55 st53">2395 ~ 2670 :: Ejection </tspan><tspan x="0" y="682.4" class="st54 st55 st53">       0 ~ 1210 :: Plane change </tspan><tspan x="0" y="708.8" class="st54 st55 st53">1635 ~ 2550 :: Low Orb Ins</tspan><tspan x="0" y="787.2" class="st54 st55 st53">2275 ~ 2385 :: Ejection </tspan><tspan x="0" y="813.6" class="st54 st55 st53">       0 ~ 0715 :: Plane change </tspan><tspan x="0" y="840" class="st54 st55 st53">1785 ~ 2160 :: Low Orb Ins</tspan><tspan x="0" y="918.4" class="st54 st55 st53">1740 ~ 1855 :: Ejection </tspan><tspan x="0" y="944.8" class="st54 st55 st53">       0 ~ 0015 :: Plane change </tspan><tspan x="0" y="971.2" class="st54 st55 st53">  910 ~ 1155 :: Low Orb Ins</tspan><tspan x="0" y="1049.6" class="st54 st55 st53">1720 ~ 1755 :: Ejection </tspan><tspan x="0" y="1076" class="st54 st55 st53">       0 ~ 0610 :: Plane change </tspan><tspan x="0" y="1102.4" class="st54 st55 st53">2275 ~ 2325 :: Low Orb Ins</tspan><tspan x="0" y="1180.8" class="st54 st55 st53">2395 ~ 3330 :: Ejection </tspan><tspan x="0" y="1207.2" class="st54 st55 st53">       0 ~ 2810 :: Plane change </tspan><tspan x="0" y="1233.6" class="st54 st55 st53">4240 ~ 6355 :: Low Orb Ins</tspan></text>
	<text transform="matrix(1 0 0 1 2002.9087 236.2563)"><tspan x="0" y="0" class="st54 st55 st53">6770 ~ 11990 :: Total </tspan><tspan x="0" y="26.4" class="st54 st55 st53">Chutes :: Descent </tspan><tspan x="0" y="52.8" class="st54 st55 st53">Ruby slippers :: Ascent</tspan><tspan x="0" y="131.2" class="st54 st55 st53">5690 ~ 7000 :: Total </tspan><tspan x="0" y="157.6" class="st54 st55 st53">550 :: Ascent </tspan><tspan x="0" y="184" class="st54 st55 st53">.</tspan><tspan x="0" y="262.4" class="st54 st55 st53">5980 ~ 7885 :: Total </tspan><tspan x="0" y="288.8" class="st54 st55 st53">350 + drag :: Descent </tspan><tspan x="0" y="315.2" class="st54 st55 st53">900 :: Ascent</tspan><tspan x="0" y="393.6" class="st54 st55 st53">7410 ~ 7880 :: Total </tspan><tspan x="0" y="420" class="st54 st55 st53">N/A   :: Ascent </tspan><tspan x="0" y="446.4" class="st54 st55 st53">.</tspan><tspan x="0" y="524.8" class="st54 st55 st53">8200 ~ 8560 :: Total </tspan><tspan x="0" y="551.2" class="st54 st55 st53">N/A   :: Ascent </tspan><tspan x="0" y="577.6" class="st54 st55 st53">.</tspan><tspan x="0" y="656" class="st54 st55 st53">4915 ~ 6020 :: Total </tspan><tspan x="0" y="682.4" class="st54 st55 st53">610 :: Ascent </tspan><tspan x="0" y="708.8" class="st54 st55 st53">.</tspan><tspan x="0" y="787.2" class="st54 st55 st53">4290 ~ 5135 :: Total </tspan><tspan x="0" y="813.6" class="st54 st55 st53">370 :: Ascent </tspan><tspan x="0" y="840" class="st54 st55 st53">.</tspan><tspan x="0" y="918.4" class="st54 st55 st53">2765 ~ 2915 :: Total </tspan><tspan x="0" y="944.8" class="st54 st55 st53">Drogue + 200 :: Descent </tspan><tspan x="0" y="971.2" class="st54 st55 st53">1975 :: Ascent</tspan><tspan x="0" y="1049.6" class="st54 st55 st53">4050 ~ 4640 :: Total </tspan><tspan x="0" y="1076" class="st54 st55 st53">Chute :: Descent </tspan><tspan x="0" y="1102.4" class="st54 st55 st53">6700 :: Ascent</tspan><tspan x="0" y="1180.8" class="st54 st55 st53">7960 ~ 11900 :: Total </tspan><tspan x="0" y="1207.2" class="st54 st55 st53">1660 :: Ascent </tspan><tspan x="0" y="1233.6" class="st54 st55 st53">.</tspan></text>
	<text transform="matrix(1 0 0 1 659.0073 785.8413)"><tspan x="0" y="0" class="st18 st52 st53">Vall</tspan><tspan x="-83.86" y="26.4" class="st54 st55 st53">Ascent : 1150</tspan></text>
	<text transform="matrix(1 0 0 1 666.9053 1053.1108)"><tspan x="0" y="0" class="st15 st52 st53">Ike</tspan><tspan x="-85.14" y="26.4" class="st54 st55 st53">Ascent :  400</tspan></text>
	<text transform="matrix(1 0 0 1 474.3208 785.8413)"><tspan x="0" y="0" class="st18 st52 st53">Tylo</tspan><tspan x="-110.44" y="26.4" class="st54 st55 st53">Descent : Chutes</tspan><tspan x="-97.92" y="52.8" class="st54 st55 st53">Ascent :     2175</tspan></text>
	<text transform="matrix(1 0 0 1 477.7749 963.1108)"><tspan x="0" y="0" class="st16 st52 st53">Dak</tspan><tspan x="-74.14" y="26.4" class="st54 st55 st53">Ascent :    55</tspan></text>
	<text transform="matrix(1 0 0 1 297.4004 785.8413)"><tspan x="0" y="0" class="st18 st52 st53">Bop</tspan><tspan x="-71.15" y="26.4" class="st54 st55 st53">Ascent : 355</tspan></text>
	<text transform="matrix(1 0 0 1 837.269 566.8413)"><tspan x="0" y="0" class="st19 st52 st53">Krel</tspan><tspan x="-70.75" y="26.4" class="st54 st55 st53">Ascent : 245</tspan></text>
	<text transform="matrix(1 0 0 1 644.6631 566.8413)"><tspan x="0" y="0" class="st19 st52 st53">Aden</tspan><tspan x="-58.23" y="26.4" class="st54 st55 st53">Ascent : 500</tspan></text>
	<text transform="matrix(1 0 0 1 824.8833 375.8413)"><tspan x="0" y="0" class="st20 st52 st53">Celes</tspan><tspan x="-58.36" y="26.4" class="st54 st55 st53">Ascent : 325</tspan></text>
	<text transform="matrix(1 0 0 1 654.1235 375.8413)"><tspan x="0" y="0" class="st20 st52 st53">Tam</tspan><tspan x="-56.41" y="26.4" class="st54 st55 st53">Ascent : 30</tspan></text>
	<text transform="matrix(1 0 0 1 832.4731 1646.8413)"><tspan x="0" y="0" class="st19 st52 st53">Mun</tspan><tspan x="-88.99" y="26.4" class="st54 st55 st53">Transfer : 1545</tspan><tspan x="-90.9" y="52.8" class="st54 st55 st53">Capture :    375</tspan><tspan x="-79.95" y="79.2" class="st54 st55 st53">Ascent :    880</tspan></text>
	<text transform="matrix(1 0 0 1 617.8901 1646.8413)"><tspan x="0" y="0" class="st19 st52 st53">Minmus</tspan><tspan x="-54.49" y="26.4" class="st54 st55 st53">Transfer : 1570</tspan><tspan x="-56.41" y="52.8" class="st54 st55 st53">Capture :    230</tspan><tspan x="-45.45" y="79.2" class="st54 st55 st53">Ascent :    305</tspan></text>
	<text transform="matrix(1 0 0 1 439.7593 566.8413)"><tspan x="0" y="0" class="st19 st52 st53">Huygen</tspan><tspan x="-75.88" y="26.4" class="st54 st55 st53">Descent : Chutes</tspan><tspan x="-63.36" y="52.8" class="st54 st55 st53">Ascent :     1875</tspan></text>
	<text transform="matrix(1 0 0 1 821.2095 177.8413)"><tspan x="0" y="0" class="st22 st52 st53">Amos</tspan><tspan x="-54.69" y="26.4" class="st54 st55 st53">Ascent : 475</tspan></text>
	<text transform="matrix(1 0 0 1 646.4893 177.8413)"><tspan x="0" y="0" class="st22 st52 st53">Enon</tspan><tspan x="-71.34" y="26.4" class="st54 st55 st53">Ascent : 1170</tspan></text>
	<g>
		<text transform="matrix(1 0 0 1 472.4507 177.8413)"><tspan x="0" y="0" class="st22 st52 st53">Prax</tspan><tspan x="-66.11" y="26.4" class="st54 st55 st53">Ascent : 160</tspan></text>
	</g>
	<text transform="matrix(1 0 0 1 292.979 566.8413)"><tspan x="0" y="0" class="st19 st52 st53">Riga</tspan><tspan x="-109.18" y="26.4" class="st54 st55 st53">Descent : Chutes</tspan><tspan x="-109.58" y="52.8" class="st54 st55 st53">Ascent :</tspan><tspan x="-37.82" y="52.8" class="st54 st55 st53 st56">	</tspan><tspan x="-37.58" y="52.8" class="st54 st55 st53 st57">	</tspan><tspan x="-1.58" y="52.8" class="st54 st55 st53">1500</tspan></text>
	<text transform="matrix(1 0 0 1 104.5747 566.8413)"><tspan x="0" y="0" class="st19 st52 st53">Talos</tspan><tspan x="-58.32" y="26.4" class="st54 st55 st53">Ascent : 840</tspan></text>
	<text transform="matrix(1 0 0 1 124.9248 785.8413)"><tspan x="0" y="0" class="st18 st52 st53">Pol</tspan><tspan x="-78.76" y="26.4" class="st54 st55 st53">Ascent : 200</tspan></text>
	<text transform="matrix(1 0 0 1 1647.8184 1576.0737)"><tspan x="0" y="0" class="st20 st58 st59">JNSQ</tspan><tspan x="229.45" y="0" class="st58 st59"> </tspan><tspan x="255.75" y="0" class="st16 st58 st59">| ΔV</tspan></text>
	<g>
		<rect x="1522.23" y="1613.49" class="st60" width="677.7" height="150.94"/>
		<text transform="matrix(1 0 0 1 1522.2285 1631.9507)"><tspan x="0" y="0" class="st16 st55 st61">Proctractor style map concept by OhioBob. Artwork by </tspan><tspan x="0" y="31.2" class="st16 st55 st61">JadeOfMaar. JNSQ (system replacement planet mod) by Team </tspan><tspan x="0" y="62.4" class="st16 st55 st61">Galileo. Safe orbits assumed at 25km above airless or 10km </tspan><tspan x="0" y="93.6" class="st16 st55 st61">above atmosphere. For risks and side-effects, please contact </tspan><tspan x="0" y="124.8" class="st16 st55 st61">your local doctor, or astronomer.</tspan></text>
	</g>
	<g>
		<g>
			<g>
				<defs>
					<rect id="SVGID_25_" x="51" y="1372.25" width="41" height="42"/>
				</defs>
				<clipPath id="SVGID_26_">
					<use xlink:href="#SVGID_25_"  style="overflow:visible;"/>
				</clipPath>
				<g class="st62">
					<path class="st0" d="M51.82,1401.66c-16.36,0-29.67-13.31-29.67-29.67c0-16.36,13.31-29.67,29.67-29.67
						c16.36,0,29.67,13.31,29.67,29.67C81.49,1388.35,68.18,1401.66,51.82,1401.66z"/>
					<g>
						<path class="st16" d="M51.82,1349.33c12.52,0,22.67,10.15,22.67,22.67c0,12.52-10.15,22.67-22.67,22.67
							c-12.52,0-22.67-10.15-22.67-22.67C29.16,1359.48,39.3,1349.33,51.82,1349.33 M51.82,1335.33
							c-20.22,0-36.67,16.45-36.67,36.67c0,20.22,16.45,36.67,36.67,36.67c20.22,0,36.67-16.45,36.67-36.67
							C88.49,1351.78,72.04,1335.33,51.82,1335.33L51.82,1335.33z"/>
					</g>
				</g>
			</g>
			<g>
				<path class="st0" d="M74.49,1371.99c0,12.52-10.15,22.67-22.67,22.67s-22.67-10.15-22.67-22.67c0-12.52,10.15-22.67,22.67-22.67
					S74.49,1359.48,74.49,1371.99z"/>
				<path class="st63" d="M74.49,1371.99c0,12.52-10.15,22.67-22.67,22.67c-12.52,0-22.67-10.15-22.67-22.67
					c0-12.52,10.15-22.67,22.67-22.67C64.34,1349.33,74.49,1359.48,74.49,1371.99z"/>
			</g>
		</g>
		<g>
			<g>
				<defs>
					<rect id="SVGID_27_" x="51" y="1453.25" width="41" height="42"/>
				</defs>
				<clipPath id="SVGID_28_">
					<use xlink:href="#SVGID_27_"  style="overflow:visible;"/>
				</clipPath>
				<g class="st64">
					<path class="st0" d="M51.82,1483.17c-16.36,0-29.67-13.31-29.67-29.67c0-16.36,13.31-29.67,29.67-29.67
						c16.36,0,29.67,13.31,29.67,29.67C81.49,1469.86,68.18,1483.17,51.82,1483.17z"/>
					<g>
						<path class="st19" d="M51.82,1430.84c12.52,0,22.67,10.15,22.67,22.67c0,12.52-10.15,22.67-22.67,22.67
							c-12.52,0-22.67-10.15-22.67-22.67C29.16,1440.99,39.3,1430.84,51.82,1430.84 M51.82,1416.84
							c-20.22,0-36.67,16.45-36.67,36.67c0,20.22,16.45,36.67,36.67,36.67c20.22,0,36.67-16.45,36.67-36.67
							C88.49,1433.29,72.04,1416.84,51.82,1416.84L51.82,1416.84z"/>
					</g>
				</g>
			</g>
			<path class="st46" d="M74.49,1453.51c0,12.52-10.15,22.67-22.67,22.67s-22.67-10.15-22.67-22.67c0-12.52,10.15-22.67,22.67-22.67
				S74.49,1440.99,74.49,1453.51z"/>
		</g>
		<g>
			<g>
				<defs>
					<rect id="SVGID_29_" x="51" y="1535.25" width="41" height="42"/>
				</defs>
				<clipPath id="SVGID_30_">
					<use xlink:href="#SVGID_29_"  style="overflow:visible;"/>
				</clipPath>
				<g class="st65">
					<path class="st0" d="M51.82,1564.68c-16.36,0-29.67-13.31-29.67-29.67s13.31-29.67,29.67-29.67
						c16.36,0,29.67,13.31,29.67,29.67S68.18,1564.68,51.82,1564.68z"/>
					<g>
						<path class="st43" d="M51.82,1512.35c12.52,0,22.67,10.15,22.67,22.67c0,12.52-10.15,22.67-22.67,22.67
							c-12.52,0-22.67-10.15-22.67-22.67C29.16,1522.5,39.3,1512.35,51.82,1512.35 M51.82,1498.35c-20.22,0-36.67,16.45-36.67,36.67
							s16.45,36.67,36.67,36.67c20.22,0,36.67-16.45,36.67-36.67S72.04,1498.35,51.82,1498.35L51.82,1498.35z"/>
					</g>
				</g>
			</g>
			<path class="st46" d="M74.49,1535.02c0,12.52-10.15,22.67-22.67,22.67s-22.67-10.15-22.67-22.67c0-12.52,10.15-22.67,22.67-22.67
				S74.49,1522.5,74.49,1535.02z"/>
		</g>
		<g>
			<polygon class="st16" points="35.43,1633.25 60.73,1589.44 86.03,1633.25 			"/>
			<polygon class="st50" points="38.1,1645.25 60.73,1606.06 83.36,1645.25 			"/>
		</g>
	</g>
	<g>
		<path class="st51" d="M26.56,1718.38c-0.12,5.42,4.24,5.42,4.24,5.42l3.89-2.94l0.94-4.71c0,0-3.53-2.83-5.18-4
			c-1.65-1.18-7.3-6.59-7.3-6.59S26.69,1712.26,26.56,1718.38z"/>
		<path class="st0" d="M84.9,1725.31l-6.59,6.95l-23.08-10.48l-27.9-31.91c0,0,0-8.36,3.41-8.24c1.08,0.04,4.12,1.41,4.12,1.41
			l2.83-2.47c0,0,0.71-5.06,4.71-5.06c4.48,0,19.66,14.34,23.19,19.9c3.3,5.18,24.14,17.31,24.14,17.31L84.9,1725.31z"/>
		<path class="st51" d="M68.12,1724.9c-3.06-0.47-8.24-1.53-11.3-4.47c-3.06-2.94-27.01-29.6-27.9-35.2
			c-0.47-2.94,1.88-3.65,1.88-3.65s-2.35-1.75-6.18,6.65c-3.65,8.01-3.24,12.54-1.47,15.01c1.77,2.47,13.77,10.48,16.95,14.36
			c2.79,3.41,10.89,16.92,19.9,19.78c9.83,3.12,29.25,4.31,32.02,0.71c2.77-3.59,0-8.01-1.59-9.48c-1.28-1.19-7.36-4.53-7.36-4.53
			l-3.18,0.71c0,0-2,4.03-2.71,5.77C75.83,1729.19,68.12,1724.9,68.12,1724.9z"/>
		<polygon class="st51" points="69.24,1723.68 76.71,1728.31 78.86,1723.98 82.54,1722.87 75.99,1717.93 75.18,1721.16 		"/>
		<path class="st51" d="M75.89,1711.36l10.01,6.95l0.82-5.89l1.65-0.35c0,0,4.83,2.15,6,3.41c1.47,1.59,3.24,4.18,2.41,6.77
			c-1.15,3.62-9.36,3.12-9.36,3.12l-3.18-1.41l1.3-0.71l-10.48-7.89l-0.47,2.35c0,0-15.54-10.71-16.66-13.36
			c-3.58-8.49-23.08-21.31-23.08-21.31s3.36-7.12,6.3-7.24c-1,1.24,2.41,7.48,15.19,21.07
			C70.48,1711.92,75.89,1711.36,75.89,1711.36z"/>
		<polygon class="st51" points="77.64,1710.36 84.67,1715.43 85.18,1711.4 88.18,1710.77 81.25,1705.91 81.57,1708.5 		"/>
	</g>
	<text transform="matrix(1 0 0 1 119.6499 1380.6108)"><tspan x="0" y="0" class="st54 st58 st61">Atmosphere present</tspan><tspan x="0" y="84.2" class="st54 st58 st61">Breathable atmosphere</tspan><tspan x="0" y="168.4" class="st54 st58 st61">Star</tspan><tspan x="0" y="252.6" class="st54 st58 st61">Not landable</tspan><tspan x="0" y="336.8" class="st54 st58 st61">There’s no place like home</tspan></text>
	<text transform="matrix(1 0 0 1 1100.4546 1646.8413)"><tspan x="0" y="0" class="st19 st52 st61">Kerbin</tspan><tspan x="0" y="31.2" class="st54 st55 st61">4900 : Ascent (to 95 km)</tspan><tspan x="0" y="62.4" class="st54 st55 st61">1935 : Geosync (to 8968.11 km)</tspan><tspan x="0" y="93.6" class="st16 st55 st61">1575 : SOI Edge</tspan></text>
	<text transform="matrix(1 0 0 1 2002.0547 206.8745)"><tspan x="0" y="0" class="st54 st66 st67">Nara</tspan><tspan x="0" y="131" class="st54 st66 st67">Hamek</tspan><tspan x="0" y="262" class="st54 st66 st67">Eeloo</tspan><tspan x="0" y="393" class="st54 st66 st67">Lindor</tspan><tspan x="0" y="524" class="st54 st66 st67">Jool</tspan><tspan x="0" y="655" class="st54 st66 st67">Dres</tspan><tspan x="0" y="786" class="st54 st66 st67">Edna</tspan><tspan x="0" y="917" class="st54 st66 st67">Duna</tspan><tspan x="0" y="1048" class="st54 st66 st67">Eve</tspan><tspan x="0" y="1179" class="st54 st66 st67">Moho</tspan></text>
	<g>
		<rect x="1519" y="24.25" class="st60" width="743" height="128"/>
		<text transform="matrix(1 0 0 1 1519 39.874)"><tspan x="0" y="0" class="st54 st55 st53">Ejection is the total Δv required to eject the spacecraft from low Kerbin orbit into </tspan><tspan x="0" y="26.4" class="st54 st55 st53">a Hohmann transfer orbit.  Low orbit insertion is the total Δv required for orbital </tspan><tspan x="0" y="52.8" class="st54 st55 st53">capture and circularization into a low orbit of the planet.  </tspan><tspan x="0" y="79.2" class="st54 st55 st53">Ascent (if not accompanied by explicit Descent values) covers Descent but is not </tspan><tspan x="0" y="105.6" class="st54 st55 st53">to be assumed to include it. Total does not include Descent and Ascent.</tspan></text>
	</g>
	<rect x="24.87" y="1108.36" class="st60" width="438.98" height="221.89"/>
	<text transform="matrix(1 0 0 1 24.8706 1126.8198)"><tspan x="0" y="0" class="st54 st55 st61">Transfer and capture numbers for </tspan><tspan x="0" y="31.2" class="st54 st55 st61">moons beyond Kerbin not given. They </tspan><tspan x="0" y="62.4" class="st54 st55 st61">can vary too widely from the player’s  </tspan><tspan x="0" y="93.6" class="st54 st55 st61">approach point at their parents.</tspan><tspan x="0" y="144.8" class="st54 st55 st61">The Kerbin SOI edge number is not to be </tspan><tspan x="0" y="176" class="st54 st55 st61">added to the Ejection numbers.</tspan></text>
</g>
<g id="Layer_6">
</g>
</svg>
